<svg width="70" height="67" viewBox="0 0 70 67" fill="none" xmlns="http://www.w3.org/2000/svg">
<mask id="mask0_226_4333" style="mask-type:luminance" maskUnits="userSpaceOnUse" x="0" y="0" width="70" height="67">
<path d="M0 0.731125H70V66.2688H0V0.731125Z" fill="white"/>
</mask>
<g mask="url(#mask0_226_4333)">
<path d="M31.2328 30.3853C31.2328 30.3853 30.83 26.7866 31.204 25.4181C31.204 25.4181 31.6928 27.9019 35.7184 30.3345L31.2328 30.3853Z" fill="#231F20"/>
</g>
<mask id="mask1_226_4333" style="mask-type:luminance" maskUnits="userSpaceOnUse" x="0" y="0" width="70" height="67">
<path d="M0 0.731125H70V66.2688H0V0.731125Z" fill="white"/>
</mask>
<g mask="url(#mask1_226_4333)">
<path d="M47.6123 29.0156C47.6123 29.0156 52.7674 25.3676 59.2259 24.7135L60.727 26.0217C60.727 26.0217 55.6846 25.8456 48.292 30.4246L47.6123 29.0156Z" fill="#231F20"/>
</g>
<mask id="mask2_226_4333" style="mask-type:luminance" maskUnits="userSpaceOnUse" x="0" y="0" width="70" height="67">
<path d="M0 0.731125H70V66.2688H0V0.731125Z" fill="white"/>
</mask>
<g mask="url(#mask2_226_4333)">
<path d="M38.9883 41.5819H43.8589C43.8589 41.5819 42.7153 43.0868 42.4612 46.8865C42.4612 46.8865 39.1155 43.8391 38.9883 41.5819Z" fill="#231F20"/>
</g>
<mask id="mask3_226_4333" style="mask-type:luminance" maskUnits="userSpaceOnUse" x="0" y="0" width="70" height="67">
<path d="M0 0.731125H70V66.2688H0V0.731125Z" fill="white"/>
</mask>
<g mask="url(#mask3_226_4333)">
<path d="M36.7846 41.6192L30.5586 41.3939C30.5586 41.3939 28.9066 43.6511 26.5346 44.2904C26.5346 44.2904 29.5512 44.9975 31.9948 43.9675C31.9948 43.9675 34.0818 43.2862 34.2068 43.1911H34.813V43.7775C34.813 43.7775 33.6356 45.2664 33.1541 46.4708C33.1541 46.4708 30.1371 46.4894 29.7374 46.6415C29.7374 46.6415 27.2066 47.3514 25.8742 48.6527C25.8742 48.6527 23.0199 52.2869 21.4789 52.6248C21.4789 52.6248 21.1148 52.7599 20.9025 52.7769C20.9025 52.7769 23.9334 53.4531 26.274 52.5234C26.274 52.5234 27.5301 52.1855 29.4899 51.0529C29.4899 51.0529 30.0418 50.9686 29.6804 51.3235C29.6804 51.3235 27.4157 53.9091 24.0667 56.2586C24.0667 56.2586 23.8006 56.377 23.6671 56.4107V57.9659H16.3031C16.3031 57.9659 16.5468 58.3655 16.355 58.4365C16.355 58.4365 15.6674 59.6015 11.653 58.934C11.653 58.934 4.90385 57.9964 2.04102 61.4484C2.04102 61.4484 3.92827 61.377 4.75985 61.9027C4.75985 61.9027 7.2868 62.6558 9.52596 61.9311C9.52596 61.9311 13.1563 60.7381 14.6277 59.5449C14.6277 59.5449 16.227 58.806 17.1387 58.877C17.1387 58.877 15.3474 59.5449 14.1639 60.7237C14.1639 60.7237 11.9888 62.4572 12.0848 65.2698C12.0848 65.2698 14.4199 64.3745 15.2036 63.6358C15.2036 63.6358 16.4351 62.8262 17.6824 62.8262C17.6824 62.8262 18.754 62.4992 19.2977 61.9027C19.2977 61.9027 21.6488 59.8856 21.7127 58.9056C21.7127 58.9056 22.2086 57.6834 23.1842 58.8342C23.1842 58.8342 23.4722 59.2182 22.9282 60.1558C22.9282 60.1558 22.3685 62.8404 23.3122 63.6358C23.3122 63.6358 25.4872 60.4112 27.5504 59.5163C27.5504 59.5163 30.9407 57.1867 31.2608 55.0416C31.2608 55.0416 31.3247 52.4844 30.989 51.8314C30.989 51.8314 30.589 51.2628 31.2768 50.368C31.2768 50.368 31.5007 49.8709 32.3804 49.6149C32.3804 49.6149 32.0447 52.3993 33.4839 54.4731C33.4839 54.4731 33.9958 55.5246 35.2432 56.732C35.2432 56.732 35.5697 53.656 37.1682 51.3742C37.1682 51.3742 39.0236 48.1037 38.4812 45.2388C38.4812 45.2388 37.3434 42.0819 36.7846 41.6192Z" fill="#231F20"/>
</g>
<mask id="mask4_226_4333" style="mask-type:luminance" maskUnits="userSpaceOnUse" x="0" y="0" width="70" height="67">
<path d="M0 0.731125H70V66.2688H0V0.731125Z" fill="white"/>
</mask>
<g mask="url(#mask4_226_4333)">
<path fill-rule="evenodd" clip-rule="evenodd" d="M16.1776 58.1215C12.128 58.1243 8.07848 58.1227 4.02894 58.1385C3.64641 58.1397 3.53669 58.0371 3.56873 57.7178C3.60017 57.4025 3.57806 57.0832 3.58719 56.7658C3.61396 55.8255 3.62086 55.8746 4.68669 55.7854C6.72688 55.6144 8.68147 55.1864 10.26 53.9328C11.5514 52.9067 12.373 51.6157 12.9947 50.196C14.2909 47.2364 15.6356 44.2934 16.9591 41.3426C17.2148 40.7726 17.2118 40.7706 16.4875 40.7706C13.1395 40.7706 9.79152 40.7651 6.44353 40.7789C6.05168 40.7805 5.86813 40.7394 5.88598 40.3362C5.90139 39.9808 5.93039 39.8151 6.42913 39.8155C25.5952 39.8291 44.7613 39.8271 63.9272 39.8275C64.4543 39.8275 64.7318 40.2236 64.5048 40.6546C64.3858 40.8799 64.1507 40.7659 63.9744 40.7663C60.5863 40.773 57.1982 40.7706 53.81 40.7714C53.0999 40.7714 53.1003 40.7726 53.3563 41.359C54.7649 44.5826 56.1662 47.8091 57.5839 51.0298C58.1374 52.2871 59.002 53.3809 60.1965 54.2104C61.2463 54.939 62.5433 55.2609 63.8345 55.5326C64.5543 55.6843 65.282 55.819 66.0278 55.8135C66.3645 55.8115 66.4716 55.9249 66.4564 56.2204C66.4292 56.7488 66.4217 57.2802 66.4574 57.8077C66.4801 58.1535 66.3292 58.2125 65.9775 58.2109C58.5001 58.178 51.022 58.1527 43.5446 58.1365C43.216 58.1357 43.1405 58.0505 43.1549 57.7781C43.1799 57.2852 43.19 56.7885 43.1499 56.2973C43.1201 55.9308 43.2752 55.8618 43.6553 55.8722C45.102 55.9125 46.481 55.6257 47.7758 55.0696C49.1352 54.4857 49.4526 53.8776 49.1694 52.5475C48.9834 51.6756 48.5571 50.8718 48.2156 50.0463C47.0037 47.1151 45.7608 44.1936 44.553 41.2618C44.397 40.8836 44.1887 40.7615 43.735 40.7623C36.3977 40.7751 29.06 40.7747 21.7223 40.7651C21.31 40.7647 21.0974 40.8507 20.9467 41.2227C19.6345 44.4591 18.3618 47.7102 16.9331 50.9071C16.2117 52.5201 17.4545 54.311 18.8834 54.8534C20.4119 55.4332 21.9708 55.8139 23.6303 55.8789C23.812 55.8862 24.0102 55.8531 23.9783 56.1052C23.7881 56.7607 23.9063 57.4337 23.8343 58.0961L23.8388 58.091C23.5376 58.0334 23.2553 58.1833 22.9626 58.163C20.7017 58.0085 18.4395 58.0898 16.1776 58.1215Z" fill="#231F20"/>
</g>
<mask id="mask5_226_4333" style="mask-type:luminance" maskUnits="userSpaceOnUse" x="0" y="0" width="70" height="67">
<path d="M0 0.731125H70V66.2688H0V0.731125Z" fill="white"/>
</mask>
<g mask="url(#mask5_226_4333)">
<path fill-rule="evenodd" clip-rule="evenodd" d="M48.8069 30.0693C48.7347 30.5299 48.9318 30.7376 49.4906 30.7363C54.2804 30.7266 59.0705 30.7317 63.8603 30.7321C64.5142 30.7321 64.6668 30.9211 64.5181 31.4979C64.4749 31.6647 64.3737 31.6843 64.2242 31.6827C64.024 31.6807 63.8232 31.6778 63.623 31.6778C44.5642 31.6774 25.5048 31.6764 6.44564 31.6855C6.05156 31.6855 5.87287 31.6391 5.88646 31.2406C5.89883 30.886 5.93047 30.7185 6.42719 30.7209C11.317 30.7398 16.2073 30.7248 21.0971 30.7442C21.6056 30.7467 21.8595 30.6167 21.9938 30.1936C22.1114 29.822 22.3007 29.4683 22.4585 29.1067C22.4921 29.0357 22.5256 28.9651 22.5593 28.8941C22.7878 28.5296 23.0063 28.1599 23.248 27.8017C23.3726 27.6179 23.8808 27.2419 24.0682 27.5415C24.6217 28.4272 25.5288 28.9466 26.4642 29.4484C26.3802 29.647 26.3214 29.8569 26.2082 30.0411C25.9415 30.4751 25.7853 30.7451 26.3313 30.743C30.8421 30.7272 35.3531 30.7303 39.8644 30.7398C40.3009 30.7408 40.4125 30.6893 40.2425 30.278C38.2887 25.5591 36.3581 20.8325 34.4193 16.1088C34.1002 15.3311 33.7684 14.5574 33.3889 13.6546C32.8141 14.9338 32.3038 16.0785 31.7856 17.2202C30.5001 20.0516 29.0684 23.007 27.7807 25.8374C27.7081 25.7826 27.6193 25.738 27.5661 25.6715C26.9408 24.8914 26.1551 24.1884 25.333 23.6726C25.1854 23.5799 25.0517 23.4816 25.0061 23.3181C27.2911 18.2617 29.7185 13.0798 32.0029 8.02325C32.6754 6.53412 33.3565 5.04764 34.0102 3.55182C34.1497 3.23217 34.3412 3.08431 34.7345 3.04132C35.4285 2.96526 36.1242 2.86222 36.8008 2.70788C37.242 2.60707 37.4056 2.74418 37.5421 3.07823C38.496 5.41515 39.4598 7.74862 40.4267 10.0815C42.402 14.8466 44.3817 19.6105 46.358 24.3752C46.9547 25.8144 47.5457 27.2557 48.1388 28.6961C48.211 29.2105 48.4398 29.666 48.8069 30.0693Z" fill="#231F20"/>
</g>
<mask id="mask6_226_4333" style="mask-type:luminance" maskUnits="userSpaceOnUse" x="0" y="0" width="70" height="67">
<path d="M0 0.731125H70V66.2688H0V0.731125Z" fill="white"/>
</mask>
<g mask="url(#mask6_226_4333)">
<path d="M23.879 38.4315V36.9568H22.2877V38.4573L23.879 38.4315ZM24.5698 38.9506H23.8683V38.8347C23.586 38.8662 23.3036 38.8962 23.0219 38.9248C22.6718 38.9589 22.3913 38.9763 22.1806 38.9763C21.7914 38.9763 21.5967 38.8218 21.5967 38.5131V36.9909C21.5967 36.6708 21.7985 36.5106 22.2021 36.5106H23.879V35.2545H22.3467V35.9664H21.6557V35.2632C21.6557 34.9401 21.8557 34.7787 22.2556 34.7787H23.9701C24.3701 34.7787 24.5698 34.9401 24.5698 35.2632V38.9506Z" fill="#231F20"/>
</g>
<mask id="mask7_226_4333" style="mask-type:luminance" maskUnits="userSpaceOnUse" x="0" y="0" width="70" height="67">
<path d="M0 0.731125H70V66.2688H0V0.731125Z" fill="white"/>
</mask>
<g mask="url(#mask7_226_4333)">
<path d="M29.1262 36.1512H28.4246V35.2896L27.1121 35.3237V38.9512H26.3994V34.7793H27.1121V34.8951C27.3476 34.8665 27.5853 34.8363 27.8242 34.8051C28.1102 34.7706 28.3477 34.7536 28.537 34.7536C28.9298 34.7536 29.1262 34.9093 29.1262 35.2209V36.1512Z" fill="#231F20"/>
</g>
<mask id="mask8_226_4333" style="mask-type:luminance" maskUnits="userSpaceOnUse" x="0" y="0" width="70" height="67">
<path d="M0 0.731125H70V66.2688H0V0.731125Z" fill="white"/>
</mask>
<g mask="url(#mask8_226_4333)">
<path d="M32.9679 37.9691V35.2896L31.3981 35.3237V38.4492H32.3836C32.773 38.4492 32.9679 38.2892 32.9679 37.9691ZM33.6802 38.0551C33.6802 38.3121 33.575 38.5261 33.3644 38.696C33.1535 38.866 32.8894 38.9512 32.5714 38.9512H30.6855V32.2412H31.3981V34.8951C31.6804 34.8665 31.9621 34.8379 32.2444 34.8093C32.6018 34.7722 32.8823 34.7536 33.0855 34.7536C33.4821 34.7536 33.6802 34.9093 33.6802 35.2209V38.0551Z" fill="#231F20"/>
</g>
<mask id="mask9_226_4333" style="mask-type:luminance" maskUnits="userSpaceOnUse" x="0" y="0" width="70" height="67">
<path d="M0 0.731125H70V66.2688H0V0.731125Z" fill="white"/>
</mask>
<g mask="url(#mask9_226_4333)">
<path d="M37.727 35.2551H36.1949V36.5112H37.727V35.2551ZM38.4183 38.4666C38.4183 38.7895 38.2181 38.9512 37.8179 38.9512H36.1037C35.7037 38.9512 35.5039 38.7895 35.5039 38.4666V35.2639C35.5039 34.9408 35.7037 34.7793 36.1037 34.7793H37.8179C38.2181 34.7793 38.4183 34.9408 38.4183 35.2639V36.7643L38.1769 36.9657H36.1949V38.4749H37.727V37.7119H38.4183V38.4666Z" fill="#231F20"/>
</g>
<mask id="mask10_226_4333" style="mask-type:luminance" maskUnits="userSpaceOnUse" x="0" y="0" width="70" height="67">
<path d="M0 0.731125H70V66.2688H0V0.731125Z" fill="white"/>
</mask>
<g mask="url(#mask10_226_4333)">
<path d="M40.9994 38.9512H40.2979V32.2412H40.9994V38.9512Z" fill="#231F20"/>
</g>
<mask id="mask11_226_4333" style="mask-type:luminance" maskUnits="userSpaceOnUse" x="0" y="0" width="70" height="67">
<path d="M0 0.731125H70V66.2688H0V0.731125Z" fill="white"/>
</mask>
<g mask="url(#mask11_226_4333)">
<path d="M43.6141 38.9512H42.9121V32.2412H43.6141V38.9512Z" fill="#231F20"/>
</g>
<mask id="mask12_226_4333" style="mask-type:luminance" maskUnits="userSpaceOnUse" x="0" y="0" width="70" height="67">
<path d="M0 0.731125H70V66.2688H0V0.731125Z" fill="white"/>
</mask>
<g mask="url(#mask12_226_4333)">
<path d="M47.7372 38.4315V36.9568H46.1459V38.4573L47.7372 38.4315ZM48.428 38.9506H47.7265V38.8347C47.4442 38.8662 47.1618 38.8962 46.8801 38.9248C46.53 38.9589 46.2493 38.9763 46.039 38.9763C45.6496 38.9763 45.4551 38.8218 45.4551 38.5131V36.9909C45.4551 36.6708 45.6567 36.5106 46.0603 36.5106H47.7372V35.2545H46.2047V35.9664H45.5139V35.2632C45.5139 34.9401 45.7137 34.7787 46.1138 34.7787H47.8283C48.2283 34.7787 48.428 34.9401 48.428 35.2632V38.9506Z" fill="#231F20"/>
</g>
<mask id="mask13_226_4333" style="mask-type:luminance" maskUnits="userSpaceOnUse" x="0" y="13" width="57" height="54">
<path d="M0 13.06H56.8317V66.2688H0V13.06Z" fill="white"/>
</mask>
<g mask="url(#mask13_226_4333)">
<path d="M18.2056 35.8042C18.2056 35.8042 16.2902 36.6986 14.5722 35.8392C14.5722 35.8392 12.2026 34.5586 11.3534 33.0328C11.3534 33.0328 10.3267 31.7174 9.12203 31.2439C9.12203 31.2439 7.93741 30.5598 7.72005 30.0686C7.72005 30.0686 10.5044 29.4022 14.2366 31.3491C14.2366 31.3491 14.5465 31.4624 14.3079 31.0978C14.2982 31.083 14.2876 31.0673 14.276 31.0509C13.9799 30.63 14.0856 30.2852 13.7047 29.9924C13.7047 29.9924 13.7358 29.6357 11.0277 28.7304C11.0277 28.7304 8.90417 27.7712 7.9682 24.7339C7.9682 24.7339 7.66439 23.5824 6.14648 21.9872C6.14648 21.9872 9.20551 21.9151 11.0941 24.1793C11.0941 24.1793 11.5229 25.085 12.1022 25.8158H12.2528C12.2528 25.8158 12.3223 24.0146 11.2795 23.3971C11.2795 23.3971 9.42567 22.1415 9.41398 19.0334C9.41398 19.0334 9.94701 17.2221 10.0862 15.1741C10.0862 15.1741 12.1139 15.7298 12.4035 18.5292C12.4035 18.5292 12.473 18.8379 12.5425 18.8997C12.5425 18.8997 12.6815 19.0026 12.4266 21.6681C12.4266 21.6681 12.0095 22.8414 12.0327 22.9341C12.0327 22.9341 11.9285 23.8499 12.334 24.3543C12.334 24.3543 12.7047 25.4864 12.6237 25.8054H12.9828C12.9828 25.8054 12.9828 22.4914 14.9294 21.5858C14.9294 21.5858 14.8599 23.4794 16.5284 25.9393C16.5284 25.9393 17.2467 27.7404 16.1653 29.4419C16.1653 29.4419 15.6858 30.3426 14.8765 31.0616C14.8765 31.0616 14.5416 31.2226 17.2349 33.6398C17.2349 33.6398 18.3233 34.7304 18.5604 34.6686C18.5604 34.6686 19.0768 34.6065 18.6303 34.2224C18.6303 34.2224 16.9976 32.6111 17.514 28.9296C17.514 28.9296 19.6489 31.1979 20.1373 31.3096C20.1373 31.3096 21.9238 32.3259 22.6774 33.6893C22.6774 33.6893 23.5005 35.2387 23.375 36.5651C23.375 36.5651 23.7099 37.408 22.2305 36.8131C22.2305 36.8131 21.5748 36.3914 21.0306 36.3667C21.0306 36.3667 19.7325 36.0818 19.3281 35.1644C19.3281 35.1644 19.063 34.3711 18.7419 35.053C18.7419 35.053 18.6462 35.4521 18.2056 35.8042Z" fill="#231F20"/>
</g>
</svg>
