<svg width="53" height="50" viewBox="0 0 53 50" fill="none" xmlns="http://www.w3.org/2000/svg">
<mask id="mask0_285_4128" style="mask-type:luminance" maskUnits="userSpaceOnUse" x="0" y="0" width="53" height="50">
<path d="M0.5 0.967834H52.5V49.6528H0.5V0.967834Z" fill="white"/>
</mask>
<g mask="url(#mask0_285_4128)">
<path d="M23.7006 22.9961C23.7006 22.9961 23.4013 20.3228 23.6792 19.3062C23.6792 19.3062 24.0423 21.1513 27.0327 22.9584L23.7006 22.9961Z" fill="white"/>
</g>
<mask id="mask1_285_4128" style="mask-type:luminance" maskUnits="userSpaceOnUse" x="0" y="0" width="53" height="50">
<path d="M0.5 0.967834H52.5V49.6528H0.5V0.967834Z" fill="white"/>
</mask>
<g mask="url(#mask1_285_4128)">
<path d="M35.8699 21.9787C35.8699 21.9787 39.6995 19.2688 44.4972 18.7829L45.6123 19.7547C45.6123 19.7547 41.8665 19.6239 36.3748 23.0254L35.8699 21.9787Z" fill="white"/>
</g>
<mask id="mask2_285_4128" style="mask-type:luminance" maskUnits="userSpaceOnUse" x="0" y="0" width="53" height="50">
<path d="M0.5 0.967834H52.5V49.6528H0.5V0.967834Z" fill="white"/>
</mask>
<g mask="url(#mask2_285_4128)">
<path d="M29.4629 31.3133H33.081C33.081 31.3133 32.2315 32.4313 32.0428 35.2539C32.0428 35.2539 29.5573 32.9901 29.4629 31.3133Z" fill="white"/>
</g>
<mask id="mask3_285_4128" style="mask-type:luminance" maskUnits="userSpaceOnUse" x="0" y="0" width="53" height="50">
<path d="M0.5 0.967834H52.5V49.6528H0.5V0.967834Z" fill="white"/>
</mask>
<g mask="url(#mask3_285_4128)">
<path d="M27.8266 31.3417L23.2015 31.1743C23.2015 31.1743 21.9743 32.8511 20.2123 33.326C20.2123 33.326 22.4531 33.8512 24.2684 33.0862C24.2684 33.0862 25.8188 32.5801 25.9116 32.5094H26.3619V32.945C26.3619 32.945 25.4873 34.051 25.1296 34.9457C25.1296 34.9457 22.8884 34.9596 22.5915 35.0726C22.5915 35.0726 20.7114 35.5999 19.7217 36.5666C19.7217 36.5666 17.6013 39.2662 16.4566 39.5173C16.4566 39.5173 16.1861 39.6176 16.0284 39.6303C16.0284 39.6303 18.2799 40.1326 20.0187 39.4419C20.0187 39.4419 20.9517 39.1909 22.4076 38.3496C22.4076 38.3496 22.8176 38.2869 22.5491 38.5506C22.5491 38.5506 20.8668 40.4713 18.3789 42.2166C18.3789 42.2166 18.1813 42.3046 18.0821 42.3296V43.4849H12.6117C12.6117 43.4849 12.7928 43.7818 12.6502 43.8345C12.6502 43.8345 12.1395 44.6999 9.15731 44.2041C9.15731 44.2041 4.14369 43.5075 2.01701 46.0719C2.01701 46.0719 3.41898 46.0189 4.03672 46.4094C4.03672 46.4094 5.91389 46.9688 7.57726 46.4305C7.57726 46.4305 10.2741 45.5443 11.3672 44.6579C11.3672 44.6579 12.5552 44.109 13.2324 44.1617C13.2324 44.1617 11.9017 44.6579 11.0226 45.5336C11.0226 45.5336 9.40682 46.8213 9.47808 48.9106C9.47808 48.9106 11.2127 48.2456 11.7949 47.6969C11.7949 47.6969 12.7098 47.0954 13.6364 47.0954C13.6364 47.0954 14.4323 46.8525 14.8363 46.4094C14.8363 46.4094 16.5828 44.911 16.6303 44.183C16.6303 44.183 16.9987 43.2751 17.7234 44.13C17.7234 44.13 17.9373 44.4152 17.5332 45.1117C17.5332 45.1117 17.1174 47.1059 17.8185 47.6969C17.8185 47.6969 19.4342 45.3014 20.9668 44.6366C20.9668 44.6366 23.4854 42.9061 23.7231 41.3126C23.7231 41.3126 23.7706 39.413 23.5212 38.9278C23.5212 38.9278 23.2241 38.5055 23.735 37.8408C23.735 37.8408 23.9014 37.4715 24.5548 37.2813C24.5548 37.2813 24.3055 39.3497 25.3746 40.8903C25.3746 40.8903 25.7549 41.6714 26.6815 42.5683C26.6815 42.5683 26.9241 40.2833 28.1115 38.5882C28.1115 38.5882 29.4898 36.1587 29.0869 34.0305C29.0869 34.0305 28.2417 31.6854 27.8266 31.3417Z" fill="white"/>
</g>
<mask id="mask4_285_4128" style="mask-type:luminance" maskUnits="userSpaceOnUse" x="0" y="0" width="53" height="50">
<path d="M0.5 0.967834H52.5V49.6528H0.5V0.967834Z" fill="white"/>
</mask>
<g mask="url(#mask4_285_4128)">
<path fill-rule="evenodd" clip-rule="evenodd" d="M12.5164 43.6005C9.50816 43.6026 6.49992 43.6014 3.49169 43.6132C3.20753 43.6141 3.12602 43.5378 3.14982 43.3007C3.17318 43.0664 3.15676 42.8293 3.16354 42.5935C3.18342 41.895 3.18855 41.9314 3.98031 41.8651C5.49587 41.7381 6.94786 41.4202 8.12051 40.4889C9.07981 39.7267 9.69017 38.7677 10.152 37.713C11.1149 35.5145 12.1138 33.3283 13.0969 31.1362C13.2869 30.7128 13.2846 30.7113 12.7466 30.7113C10.2595 30.7113 7.77247 30.7073 5.28539 30.7175C4.9943 30.7187 4.85795 30.6881 4.8712 30.3886C4.88266 30.1246 4.9042 30.0015 5.27469 30.0018C19.5124 30.0119 33.75 30.0104 47.9875 30.0107C48.3791 30.0107 48.5852 30.305 48.4166 30.6252C48.3282 30.7926 48.1536 30.7079 48.0226 30.7082C45.5057 30.7132 42.9888 30.7113 40.4719 30.7119C39.9444 30.7119 39.9447 30.7128 40.1349 31.1484C41.1813 33.5431 42.2222 35.94 43.2754 38.3324C43.6866 39.2664 44.3289 40.079 45.2161 40.6952C45.996 41.2364 46.9595 41.4755 47.9187 41.6774C48.4534 41.7901 48.994 41.8901 49.548 41.8861C49.7981 41.8846 49.8777 41.9688 49.8664 42.1883C49.8462 42.5808 49.8406 42.9756 49.8671 43.3674C49.884 43.6243 49.7719 43.6682 49.5106 43.667C43.956 43.6426 38.4008 43.6237 32.8462 43.6117C32.6021 43.6111 32.546 43.5478 32.5567 43.3454C32.5753 42.9793 32.5828 42.6103 32.553 42.2454C32.5308 41.9732 32.6461 41.9219 32.9284 41.9296C34.0031 41.9596 35.0275 41.7466 35.9894 41.3334C36.9992 40.8997 37.235 40.4479 37.0246 39.4599C36.8865 38.8121 36.5698 38.2151 36.316 37.6018C35.4158 35.4244 34.4925 33.2542 33.5953 31.0763C33.4794 30.7953 33.3247 30.7046 32.9876 30.7052C27.5371 30.7147 22.0862 30.7144 16.6354 30.7073C16.329 30.707 16.1711 30.7709 16.0592 31.0472C15.0844 33.4514 14.1389 35.8664 13.0776 38.2413C12.5417 39.4395 13.465 40.7699 14.5265 41.1728C15.6619 41.6036 16.8199 41.8864 18.0527 41.9346C18.1877 41.94 18.3349 41.9155 18.3112 42.1027C18.1699 42.5897 18.2577 43.0896 18.2043 43.5817L18.2076 43.5779C17.9838 43.5351 17.7741 43.6465 17.5567 43.6314C15.8772 43.5166 14.1966 43.577 12.5164 43.6005Z" fill="white"/>
</g>
<mask id="mask5_285_4128" style="mask-type:luminance" maskUnits="userSpaceOnUse" x="0" y="0" width="53" height="50">
<path d="M0.5 0.967834H52.5V49.6528H0.5V0.967834Z" fill="white"/>
</mask>
<g mask="url(#mask5_285_4128)">
<path fill-rule="evenodd" clip-rule="evenodd" d="M36.7552 22.7617C36.7016 23.1039 36.848 23.2582 37.2631 23.2573C40.8213 23.25 44.3796 23.2538 47.9378 23.2541C48.4235 23.2541 48.5368 23.3945 48.4264 23.823C48.3943 23.9469 48.3191 23.9615 48.2081 23.9603C48.0594 23.9588 47.9102 23.9567 47.7615 23.9567C33.6035 23.9564 19.4451 23.9556 5.28688 23.9624C4.99413 23.9624 4.8614 23.9279 4.87149 23.6318C4.88068 23.3685 4.90419 23.244 5.27317 23.2458C8.90562 23.2598 12.5384 23.2487 16.1708 23.2632C16.5485 23.265 16.7372 23.1684 16.8369 22.8541C16.9243 22.5781 17.0649 22.3153 17.1821 22.0467C17.2071 21.9939 17.232 21.9415 17.257 21.8888C17.4268 21.618 17.5891 21.3433 17.7687 21.0773C17.8612 20.9408 18.2387 20.6614 18.378 20.884C18.7891 21.5419 19.4629 21.9278 20.1578 22.3005C20.0954 22.448 20.0517 22.604 19.9677 22.7408C19.7695 23.0632 19.6535 23.2638 20.0591 23.2622C23.41 23.2505 26.761 23.2528 30.1123 23.2598C30.4365 23.2606 30.5194 23.2223 30.3931 22.9168C28.9417 19.4113 27.5075 15.9002 26.0673 12.3911C25.8303 11.8135 25.5838 11.2387 25.3019 10.568C24.8749 11.5183 24.4958 12.3687 24.1109 13.2168C23.1559 15.3201 22.0924 17.5155 21.1358 19.618C21.0818 19.5774 21.0159 19.5442 20.9764 19.4948C20.5119 18.9153 19.9282 18.3931 19.3175 18.01C19.2078 17.9411 19.1085 17.868 19.0746 17.7466C20.7721 13.9905 22.5753 10.141 24.2722 6.38474C24.7718 5.27853 25.2778 4.17429 25.7634 3.06311C25.8671 2.82566 26.0093 2.71583 26.3014 2.68388C26.817 2.62738 27.3338 2.55084 27.8364 2.43619C28.1641 2.36131 28.2857 2.46316 28.3871 2.71131C29.0957 4.4473 29.8117 6.18073 30.5299 7.91372C31.9973 11.4535 33.4679 14.9924 34.9361 18.5319C35.3793 19.601 35.8184 20.6717 36.2589 21.7417C36.3126 22.1238 36.4825 22.4622 36.7552 22.7617Z" fill="white"/>
</g>
<mask id="mask6_285_4128" style="mask-type:luminance" maskUnits="userSpaceOnUse" x="0" y="0" width="53" height="50">
<path d="M0.5 0.967834H52.5V49.6528H0.5V0.967834Z" fill="white"/>
</mask>
<g mask="url(#mask6_285_4128)">
<path d="M18.2402 28.9737V27.8782H17.058V28.9929L18.2402 28.9737ZM18.7533 29.3593H18.2322V29.2733C18.0224 29.2966 17.8127 29.3189 17.6034 29.3401C17.3434 29.3655 17.135 29.3784 16.9785 29.3784C16.6893 29.3784 16.5447 29.2636 16.5447 29.0343V27.9035C16.5447 27.6658 16.6946 27.5467 16.9944 27.5467H18.2402V26.6137H17.1019V27.1425H16.5885V26.6201C16.5885 26.3801 16.7371 26.2602 17.0342 26.2602H18.3078C18.6049 26.2602 18.7533 26.3801 18.7533 26.6201V29.3593Z" fill="white"/>
</g>
<mask id="mask7_285_4128" style="mask-type:luminance" maskUnits="userSpaceOnUse" x="0" y="0" width="53" height="50">
<path d="M0.5 0.967834H52.5V49.6528H0.5V0.967834Z" fill="white"/>
</mask>
<g mask="url(#mask7_285_4128)">
<path d="M22.1357 27.2794H21.6145V26.6394L20.6395 26.6647V29.3594H20.1101V26.2603H20.6395V26.3463C20.8144 26.3251 20.991 26.3026 21.1685 26.2794C21.381 26.2538 21.5574 26.2412 21.698 26.2412C21.9898 26.2412 22.1357 26.3569 22.1357 26.5883V27.2794Z" fill="white"/>
</g>
<mask id="mask8_285_4128" style="mask-type:luminance" maskUnits="userSpaceOnUse" x="0" y="0" width="53" height="50">
<path d="M0.5 0.967834H52.5V49.6528H0.5V0.967834Z" fill="white"/>
</mask>
<g mask="url(#mask8_285_4128)">
<path d="M24.9927 28.6298V26.6394L23.8266 26.6647V28.9865H24.5587C24.8479 28.9865 24.9927 28.8676 24.9927 28.6298ZM25.5219 28.6937C25.5219 28.8846 25.4437 29.0436 25.2873 29.1698C25.1306 29.2961 24.9344 29.3594 24.6982 29.3594H23.2973V24.3748H23.8266V26.3463C24.0363 26.3251 24.2456 26.3038 24.4553 26.2826C24.7208 26.255 24.9292 26.2412 25.0801 26.2412C25.3747 26.2412 25.5219 26.3569 25.5219 26.5883V28.6937Z" fill="white"/>
</g>
<mask id="mask9_285_4128" style="mask-type:luminance" maskUnits="userSpaceOnUse" x="0" y="0" width="53" height="50">
<path d="M0.5 0.967834H52.5V49.6528H0.5V0.967834Z" fill="white"/>
</mask>
<g mask="url(#mask9_285_4128)">
<path d="M28.5264 26.6138H27.3882V27.5468H28.5264V26.6138ZM29.0398 28.9994C29.0398 29.2393 28.8911 29.3594 28.5939 29.3594H27.3204C27.0233 29.3594 26.8749 29.2393 26.8749 28.9994V26.6202C26.8749 26.3802 27.0233 26.2603 27.3204 26.2603H28.5939C28.8911 26.2603 29.0398 26.3802 29.0398 26.6202V27.7349L28.8605 27.8845H27.3882V29.0056H28.5264V28.4388H29.0398V28.9994Z" fill="white"/>
</g>
<mask id="mask10_285_4128" style="mask-type:luminance" maskUnits="userSpaceOnUse" x="0" y="0" width="53" height="50">
<path d="M0.5 0.967834H52.5V49.6528H0.5V0.967834Z" fill="white"/>
</mask>
<g mask="url(#mask10_285_4128)">
<path d="M30.9573 29.3594H30.4362V24.3748H30.9573V29.3594Z" fill="white"/>
</g>
<mask id="mask11_285_4128" style="mask-type:luminance" maskUnits="userSpaceOnUse" x="0" y="0" width="53" height="50">
<path d="M0.5 0.967834H52.5V49.6528H0.5V0.967834Z" fill="white"/>
</mask>
<g mask="url(#mask11_285_4128)">
<path d="M32.8992 29.3594H32.3777V24.3748H32.8992V29.3594Z" fill="white"/>
</g>
<mask id="mask12_285_4128" style="mask-type:luminance" maskUnits="userSpaceOnUse" x="0" y="0" width="53" height="50">
<path d="M0.5 0.967834H52.5V49.6528H0.5V0.967834Z" fill="white"/>
</mask>
<g mask="url(#mask12_285_4128)">
<path d="M35.9632 28.9737V27.8782H34.781V28.9929L35.9632 28.9737ZM36.4763 29.3593H35.9552V29.2733C35.7455 29.2966 35.5357 29.3189 35.3264 29.3401C35.0664 29.3655 34.8579 29.3784 34.7016 29.3784C34.4123 29.3784 34.2679 29.2636 34.2679 29.0343V27.9035C34.2679 27.6658 34.4176 27.5467 34.7174 27.5467H35.9632V26.6137H34.8247V27.1425H34.3115V26.6201C34.3115 26.3801 34.46 26.2602 34.7572 26.2602H36.0308C36.3279 26.2602 36.4763 26.3801 36.4763 26.6201V29.3593Z" fill="white"/>
</g>
<mask id="mask13_285_4128" style="mask-type:luminance" maskUnits="userSpaceOnUse" x="0" y="0" width="53" height="50">
<path d="M0.5 0.967834H52.5V49.6528H0.5V0.967834Z" fill="white"/>
</mask>
<g mask="url(#mask13_285_4128)">
<path d="M17.1607 21.7779C17.1607 21.7779 15.4082 22.5963 13.8362 21.81C13.8362 21.81 11.6681 20.6382 10.8911 19.2422C10.8911 19.2422 9.95173 18.0386 8.84945 17.6053C8.84945 17.6053 7.76554 16.9794 7.56666 16.53C7.56666 16.53 10.1143 15.9202 13.5292 17.7016C13.5292 17.7016 13.8127 17.8052 13.5944 17.4717C13.5855 17.4581 13.5759 17.4438 13.5652 17.4287C13.2943 17.0436 13.391 16.7281 13.0425 16.4602C13.0425 16.4602 13.071 16.1339 10.5931 15.3055C10.5931 15.3055 8.65011 14.4279 7.79372 11.6488C7.79372 11.6488 7.51573 10.5952 6.12688 9.13565C6.12688 9.13565 8.92583 9.06966 10.6538 11.1413C10.6538 11.1413 11.0462 11.97 11.5762 12.6387H11.7141C11.7141 12.6387 11.7777 10.9907 10.8235 10.4257C10.8235 10.4257 9.12728 9.27683 9.11658 6.43297C9.11658 6.43297 9.60429 4.77563 9.73161 2.90177C9.73161 2.90177 11.5869 3.41027 11.852 5.97163C11.852 5.97163 11.9155 6.25413 11.9791 6.31063C11.9791 6.31063 12.1063 6.4048 11.873 8.84366C11.873 8.84366 11.4914 9.91717 11.5127 10.002C11.5127 10.002 11.4173 10.84 11.7884 11.3015C11.7884 11.3015 12.1275 12.3373 12.0534 12.6292H12.382C12.382 12.6292 12.382 9.597 14.163 8.76832C14.163 8.76832 14.0995 10.501 15.6262 12.7517C15.6262 12.7517 16.2834 14.3997 15.294 15.9565C15.294 15.9565 14.8552 16.7807 14.1147 17.4385C14.1147 17.4385 13.8082 17.5859 16.2725 19.7975C16.2725 19.7975 17.2685 20.7954 17.4854 20.7389C17.4854 20.7389 17.9579 20.6821 17.5493 20.3306C17.5493 20.3306 16.0554 18.8563 16.5279 15.4878C16.5279 15.4878 18.4813 17.5633 18.9282 17.6654C18.9282 17.6654 20.5628 18.5953 21.2524 19.8429C21.2524 19.8429 22.0055 21.2605 21.8906 22.4741C21.8906 22.4741 22.1971 23.2454 20.8435 22.701C20.8435 22.701 20.2435 22.3152 19.7456 22.2926C19.7456 22.2926 18.5579 22.0319 18.1878 21.1925C18.1878 21.1925 17.9453 20.4666 17.6515 21.0905C17.6515 21.0905 17.5639 21.4558 17.1607 21.7779Z" fill="white"/>
</g>
</svg>
