<svg width="72" height="66" viewBox="0 0 72 66" fill="none" xmlns="http://www.w3.org/2000/svg">
<path d="M36.0172 57.1258C21.4634 57.1258 9.66602 46.1927 9.66602 32.7052C9.66602 19.2177 21.4634 8.28467 36.0172 8.28467C50.571 8.28467 62.3683 19.2177 62.3683 32.7052C62.3683 46.1927 50.571 57.1258 36.0172 57.1258ZM36.0172 10.9413C23.1172 10.9413 12.5327 20.7504 12.5327 32.7052C12.5327 44.66 23.1172 54.4691 36.0172 54.4691C48.9171 54.4691 59.5017 44.66 59.5017 32.7052C59.5017 20.7504 48.9171 10.9413 36.0172 10.9413Z" fill="#FFA273"/>
<path d="M35.4661 46.7037L33.4814 44.7623L46.3814 32.7053L33.4814 20.6483L35.4661 18.7069L50.5711 32.7053L35.4661 46.7037Z" fill="white"/>
<path d="M48.477 34.1356H22.0156V31.2747H48.477V34.1356Z" fill="white"/>
</svg>
