<svg width="27" height="28" viewBox="0 0 27 28" fill="none" xmlns="http://www.w3.org/2000/svg">
<path d="M9.83618 2.43213V7.13565H7.95477V5.25424H2.31055V22.1869H4.19196V23.1276C4.19196 23.892 4.46633 24.5485 5.01507 25.0972C5.58341 25.6656 6.24975 25.9497 7.01407 25.9497C7.77839 25.9497 8.43493 25.6656 8.98367 25.0972C9.55201 24.5485 9.83618 23.892 9.83618 23.1276V22.1869H24.8875V7.13565H21.1246V2.43213H9.83618ZM11.7176 4.31354H19.2432V9.01706H11.7176V4.31354ZM4.19196 7.13565H6.07336V20.3055H4.19196V7.13565ZM7.95477 9.01706H9.83618V10.8985H21.1246V9.01706H23.006V20.3055H7.95477V9.01706ZM10.7769 12.7799V14.6613H12.6583V12.7799H10.7769ZM14.5397 12.7799V14.6613H16.4211V12.7799H14.5397ZM18.3025 12.7799V14.6613H20.1839V12.7799H18.3025ZM10.7769 16.5427V18.4241H12.6583V16.5427H10.7769ZM14.5397 16.5427V18.4241H16.4211V16.5427H14.5397ZM18.3025 16.5427V18.4241H20.1839V16.5427H18.3025ZM6.07336 22.1869H7.95477V23.1276C7.95477 23.3824 7.85678 23.6078 7.6608 23.8038C7.48442 23.9801 7.26884 24.0683 7.01407 24.0683C6.75929 24.0683 6.53392 23.9801 6.33794 23.8038C6.16156 23.6078 6.07336 23.3824 6.07336 23.1276V22.1869Z" fill="white"/>
</svg>
