<svg width="28" height="29" viewBox="0 0 28 29" fill="none" xmlns="http://www.w3.org/2000/svg">
<path d="M14.875 1.26953V3.11242C16.6978 3.11242 18.4054 3.57314 19.9979 4.49458C21.5137 5.39682 22.7225 6.60622 23.6243 8.12276C24.5452 9.71608 25.0057 11.4246 25.0057 13.2483H26.8477C26.8477 11.0791 26.3008 9.0634 25.2072 7.20132C24.1519 5.39682 22.7225 3.96667 20.9189 2.91085C19.0578 1.81664 17.0431 1.26953 14.875 1.26953ZM5.34867 4.03386C4.83062 4.03386 4.37973 4.19703 3.99599 4.52337L1.0316 7.54686L1.11795 7.48927C0.638271 7.8924 0.321686 8.39151 0.168191 8.98661C0.0338818 9.58171 0.0722557 10.1576 0.283312 10.7143C0.820547 12.2117 1.54006 13.7474 2.44185 15.3215C3.70819 17.4908 5.21436 19.4392 6.96038 21.1669C9.76167 23.9888 13.2441 26.2157 17.4077 27.8474H17.4365C17.9929 28.0393 18.5493 28.0777 19.1057 27.9626C19.6813 27.8474 20.1898 27.5978 20.6311 27.2139L23.5379 24.3056C23.9216 23.9217 24.1135 23.4513 24.1135 22.8946C24.1135 22.3187 23.9216 21.8388 23.5379 21.4549L19.7677 17.6539C19.3839 17.27 18.9043 17.078 18.3287 17.078C17.753 17.078 17.2734 17.27 16.8896 17.6539L15.0765 19.4968C13.6183 18.8057 12.3519 17.9515 11.2774 16.934C10.203 15.8974 9.34915 14.64 8.71598 13.1619L10.5579 11.319C10.9609 10.8967 11.1623 10.3976 11.1623 9.82167C11.1623 9.22657 10.9321 8.74665 10.4716 8.38191L10.5579 8.4683L6.70135 4.52337C6.31761 4.19703 5.86672 4.03386 5.34867 4.03386ZM14.875 4.9553V6.79818C16.0454 6.79818 17.1199 7.08613 18.0984 7.66204C19.0961 8.23794 19.8828 9.025 20.4584 10.0232C21.034 11.0023 21.3218 12.0773 21.3218 13.2483H23.1638C23.1638 11.7509 22.7896 10.3592 22.0413 9.07299C21.293 7.82521 20.2953 6.82698 19.0482 6.07831C17.7626 5.32964 16.3716 4.9553 14.875 4.9553ZM5.34867 5.87674C5.40623 5.87674 5.47339 5.90554 5.55013 5.96313L9.32037 9.82167C9.33956 9.89845 9.32037 9.96564 9.26281 10.0232L6.52867 12.73L6.73013 13.3059L7.10428 14.1121C7.41127 14.7648 7.76623 15.3983 8.16915 16.0126C8.72558 16.8765 9.33956 17.6155 10.0111 18.2298C10.9129 19.1129 11.997 19.9191 13.2633 20.6486C13.8965 21.0133 14.4337 21.2821 14.875 21.4549L15.4506 21.714L18.2423 18.9209C18.2807 18.8825 18.3095 18.8633 18.3287 18.8633C18.3478 18.8633 18.3766 18.8825 18.415 18.9209L22.3004 22.8082C22.3387 22.8466 22.3579 22.8754 22.3579 22.8946C22.3579 22.8946 22.3387 22.9138 22.3004 22.9522L19.4223 25.8029C19.0002 26.1677 18.5397 26.2637 18.0408 26.0909C14.1267 24.5743 10.8649 22.5011 8.2555 19.8711C6.64379 18.2586 5.23355 16.4253 4.02477 14.3713C3.16136 12.8931 2.48981 11.463 2.01014 10.0808V10.052C1.93339 9.87926 1.9238 9.67769 1.98136 9.44733C2.03892 9.19777 2.14445 9.00581 2.29794 8.87143L5.14721 5.96313C5.20477 5.90554 5.27192 5.87674 5.34867 5.87674ZM14.875 8.64107V10.484C15.6425 10.484 16.2948 10.7527 16.8321 11.2902C17.3693 11.8277 17.6379 12.4804 17.6379 13.2483H19.4799C19.4799 12.4228 19.2688 11.655 18.8467 10.9447C18.4438 10.2344 17.8874 9.67769 17.1774 9.27456C16.4675 8.85223 15.7 8.64107 14.875 8.64107Z" fill="white"/>
</svg>
