<svg width="55" height="55" viewBox="0 0 55 55" fill="none" xmlns="http://www.w3.org/2000/svg">
<path d="M27.5 6.05273C15.5714 6.05273 5.89999 15.7241 5.89999 27.6527C5.89999 39.5813 15.5714 49.2527 27.5 49.2527C39.4286 49.2527 49.1 39.5813 49.1 27.6527C49.1 15.7241 39.4286 6.05273 27.5 6.05273ZM19.3928 15.7781C20.9084 15.7781 21.9182 16.7879 21.9182 18.1343C21.9182 19.4807 20.9084 20.4905 19.2254 20.4905C17.7098 20.4923 16.7 19.4807 16.7 18.1343C16.7 16.7879 17.7098 15.7781 19.3928 15.7781ZM22.1 36.6527H16.7V22.2527H22.1V36.6527ZM40.1 36.6527H35.0168V28.7831C35.0168 26.6069 33.6614 26.1047 33.1538 26.1047C32.6462 26.1047 30.9506 26.4395 30.9506 28.7831C30.9506 29.1179 30.9506 36.6527 30.9506 36.6527H25.7V22.2527H30.9524V24.2615C31.6292 23.0897 32.9846 22.2527 35.5262 22.2527C38.0678 22.2527 40.1 24.2615 40.1 28.7831V36.6527Z" fill="white"/>
</svg>
