<svg width="55" height="55" viewBox="0 0 55 55" fill="none" xmlns="http://www.w3.org/2000/svg">
<path d="M27.5 4.25293C14.5976 4.25293 4.10001 14.7505 4.10001 27.6529C4.10001 40.5553 14.5976 51.0529 27.5 51.0529C40.4024 51.0529 50.9 40.5553 50.9 27.6529C50.9 14.7505 40.4024 4.25293 27.5 4.25293ZM21.4988 11.4529H33.4977C39.1226 11.4529 43.7 16.0286 43.7 21.6518V33.6506C43.7 39.2756 39.1244 43.8529 33.5012 43.8529H21.5023C15.8773 43.8529 11.3 39.2773 11.3 33.6541V21.6553C11.3 16.0303 15.8756 11.4529 21.4988 11.4529ZM21.4988 15.0529C17.861 15.0529 14.9 18.0157 14.9 21.6553V33.6541C14.9 37.2919 17.8627 40.2529 21.5023 40.2529H33.5012C37.139 40.2529 40.1 37.2902 40.1 33.6506V21.6518C40.1 18.014 37.1372 15.0529 33.4977 15.0529H21.4988ZM35.9023 18.0518C36.5647 18.0518 37.1012 18.5882 37.1012 19.2506C37.1012 19.913 36.5647 20.4529 35.9023 20.4529C35.2399 20.4529 34.7 19.913 34.7 19.2506C34.7 18.5882 35.2399 18.0518 35.9023 18.0518ZM27.5 18.6529C32.4626 18.6529 36.5 22.6903 36.5 27.6529C36.5 32.6155 32.4626 36.6529 27.5 36.6529C22.5374 36.6529 18.5 32.6155 18.5 27.6529C18.5 22.6903 22.5374 18.6529 27.5 18.6529ZM27.5 22.2529C26.0678 22.2529 24.6943 22.8218 23.6816 23.8345C22.6689 24.8472 22.1 26.2208 22.1 27.6529C22.1 29.0851 22.6689 30.4586 23.6816 31.4713C24.6943 32.484 26.0678 33.0529 27.5 33.0529C28.9322 33.0529 30.3057 32.484 31.3184 31.4713C32.3311 30.4586 32.9 29.0851 32.9 27.6529C32.9 26.2208 32.3311 24.8472 31.3184 23.8345C30.3057 22.8218 28.9322 22.2529 27.5 22.2529Z" fill="white"/>
</svg>
