<svg width="24" height="25" viewBox="0 0 24 25" fill="none" xmlns="http://www.w3.org/2000/svg">
<path fill-rule="evenodd" clip-rule="evenodd" d="M10.7574 3.69291C11.8826 2.56769 13.4087 1.93555 15 1.93555H18C18.5523 1.93555 19 2.38326 19 2.93555V6.93555C19 7.48783 18.5523 7.93555 18 7.93555H15V9.93555H18C18.3079 9.93555 18.5987 10.0774 18.7882 10.3201C18.9777 10.5629 19.0448 10.8793 18.9701 11.1781L17.9701 15.1781C17.8589 15.6232 17.4589 15.9355 17 15.9355H15V22.9355C15 23.4878 14.5523 23.9355 14 23.9355H10C9.44772 23.9355 9 23.4878 9 22.9355V15.9355H7C6.44772 15.9355 6 15.4878 6 14.9355V10.9355C6 10.3833 6.44772 9.93555 7 9.93555H9V7.93555C9 6.34425 9.63214 4.81812 10.7574 3.69291ZM15 3.93555C13.9391 3.93555 12.9217 4.35697 12.1716 5.10712C11.4214 5.85727 11 6.87468 11 7.93555V10.9355C11 11.4878 10.5523 11.9355 10 11.9355H8V13.9355H10C10.5523 13.9355 11 14.3833 11 14.9355V21.9355H13V14.9355C13 14.3833 13.4477 13.9355 14 13.9355H16.2192L16.7192 11.9355H14C13.4477 11.9355 13 11.4878 13 10.9355V7.93555C13 7.40511 13.2107 6.89641 13.5858 6.52133C13.9609 6.14626 14.4696 5.93555 15 5.93555H17V3.93555H15Z" fill="white"/>
</svg>
