<svg width="24" height="25" viewBox="0 0 24 25" fill="none" xmlns="http://www.w3.org/2000/svg">
<path fill-rule="evenodd" clip-rule="evenodd" d="M16 9.93555C14.6739 9.93555 13.4021 10.4623 12.4645 11.4C11.5268 12.3377 11 13.6095 11 14.9355V20.9355H13V14.9355C13 14.1399 13.3161 13.3768 13.8787 12.8142C14.4413 12.2516 15.2043 11.9355 16 11.9355C16.7957 11.9355 17.5587 12.2516 18.1213 12.8142C18.6839 13.3768 19 14.1399 19 14.9355V20.9355H21V14.9355C21 13.6095 20.4732 12.3377 19.5355 11.4C18.5979 10.4623 17.3261 9.93555 16 9.93555ZM16 7.93555C14.1435 7.93555 12.363 8.67305 11.0503 9.9858C9.7375 11.2986 9 13.079 9 14.9355V21.9355C9 22.4878 9.44772 22.9355 10 22.9355H14C14.5523 22.9355 15 22.4878 15 21.9355V14.9355C15 14.6703 15.1054 14.416 15.2929 14.2284C15.4804 14.0409 15.7348 13.9355 16 13.9355C16.2652 13.9355 16.5196 14.0409 16.7071 14.2284C16.8946 14.416 17 14.6703 17 14.9355V21.9355C17 22.4878 17.4477 22.9355 18 22.9355H22C22.5523 22.9355 23 22.4878 23 21.9355V14.9355C23 13.079 22.2625 11.2986 20.9497 9.9858C19.637 8.67304 17.8565 7.93555 16 7.93555Z" fill="white"/>
<path fill-rule="evenodd" clip-rule="evenodd" d="M1 9.93555C1 9.38326 1.44772 8.93555 2 8.93555H6C6.55228 8.93555 7 9.38326 7 9.93555V21.9355C7 22.4878 6.55228 22.9355 6 22.9355H2C1.44772 22.9355 1 22.4878 1 21.9355V9.93555ZM3 10.9355V20.9355H5V10.9355H3Z" fill="white"/>
<path fill-rule="evenodd" clip-rule="evenodd" d="M4 3.93555C3.44772 3.93555 3 4.38326 3 4.93555C3 5.48783 3.44772 5.93555 4 5.93555C4.55228 5.93555 5 5.48783 5 4.93555C5 4.38326 4.55228 3.93555 4 3.93555ZM1 4.93555C1 3.27869 2.34315 1.93555 4 1.93555C5.65685 1.93555 7 3.27869 7 4.93555C7 6.5924 5.65685 7.93555 4 7.93555C2.34315 7.93555 1 6.5924 1 4.93555Z" fill="white"/>
</svg>
