<svg width="24" height="25" viewBox="0 0 24 25" fill="none" xmlns="http://www.w3.org/2000/svg">
<path fill-rule="evenodd" clip-rule="evenodd" d="M7 3.93555C4.79086 3.93555 3 5.72641 3 7.93555V17.9355C3 20.1447 4.79086 21.9355 7 21.9355H17C19.2091 21.9355 21 20.1447 21 17.9355V7.93555C21 5.72641 19.2091 3.93555 17 3.93555H7ZM1 7.93555C1 4.62184 3.68629 1.93555 7 1.93555H17C20.3137 1.93555 23 4.62184 23 7.93555V17.9355C23 21.2493 20.3137 23.9355 17 23.9355H7C3.68629 23.9355 1 21.2493 1 17.9355V7.93555Z" fill="white"/>
<path fill-rule="evenodd" clip-rule="evenodd" d="M12.4833 9.92454C11.8591 9.83199 11.2216 9.9386 10.6615 10.2292C10.1014 10.5199 9.64721 10.9797 9.36351 11.5433C9.07982 12.107 8.98107 12.7457 9.08132 13.3687C9.18157 13.9917 9.47571 14.5672 9.9219 15.0134C10.3681 15.4596 10.9436 15.7537 11.5666 15.854C12.1896 15.9542 12.8283 15.8555 13.392 15.5718C13.9556 15.2881 14.4155 14.8339 14.7061 14.2738C14.9967 13.7137 15.1033 13.0762 15.0108 12.452C14.9164 11.8154 14.6197 11.2259 14.1645 10.7708C13.7094 10.3156 13.12 10.019 12.4833 9.92454ZM9.74037 8.45398C10.6739 7.96961 11.7363 7.79191 12.7766 7.94618C13.8378 8.10353 14.8202 8.59801 15.5788 9.35656C16.3373 10.1151 16.8318 11.0975 16.9891 12.1587C17.1434 13.199 16.9657 14.2614 16.4813 15.1949C15.997 16.1284 15.2306 16.8854 14.2912 17.3583C13.3518 17.8311 12.2872 17.9957 11.2489 17.8286C10.2105 17.6615 9.25134 17.1713 8.50768 16.4276C7.76403 15.684 7.2738 14.7248 7.10672 13.6864C6.93964 12.6481 7.10422 11.5835 7.57704 10.6441C8.04987 9.70474 8.80687 8.93835 9.74037 8.45398Z" fill="white"/>
<path fill-rule="evenodd" clip-rule="evenodd" d="M16.5 7.43555C16.5 6.88326 16.9477 6.43555 17.5 6.43555H17.51C18.0623 6.43555 18.51 6.88326 18.51 7.43555C18.51 7.98783 18.0623 8.43555 17.51 8.43555H17.5C16.9477 8.43555 16.5 7.98783 16.5 7.43555Z" fill="white"/>
</svg>
