<svg width="55" height="55" viewBox="0 0 55 55" fill="none" xmlns="http://www.w3.org/2000/svg">
<path d="M27.5 6.05273C15.5714 6.05273 5.89999 15.7241 5.89999 27.6527C5.89999 39.5813 15.5714 49.2527 27.5 49.2527C39.4286 49.2527 49.1 39.5813 49.1 27.6527C49.1 15.7241 39.4286 6.05273 27.5 6.05273ZM39.1352 23.2157C39.146 23.4551 39.1514 23.6927 39.1514 23.9303C39.1514 31.2527 33.5804 39.6911 23.3906 39.6911C20.2604 39.6911 17.3498 38.7749 14.9 37.2017C15.3338 37.2539 15.7748 37.2773 16.223 37.2773C18.8204 37.2773 21.2072 36.3935 23.1008 34.9049C20.6762 34.8599 18.6296 33.2579 17.9258 31.0583C18.2642 31.1231 18.6116 31.1573 18.968 31.1573C19.4738 31.1573 19.9652 31.0889 20.4278 30.9629C17.8934 30.4553 15.9836 28.2161 15.9836 25.5323C15.9836 25.5089 15.9836 25.4855 15.9836 25.4621C16.7306 25.8779 17.5838 26.1263 18.4928 26.1551C17.0078 25.1633 16.0286 23.4659 16.0286 21.5453C16.0286 20.5283 16.3004 19.5761 16.7774 18.7607C19.5098 22.1123 23.5922 24.3191 28.1948 24.5495C28.1012 24.1445 28.0526 23.7215 28.0526 23.2877C28.0526 20.2295 30.533 17.7473 33.5912 17.7473C35.1842 17.7473 36.6242 18.4205 37.634 19.4969C38.8958 19.2467 40.082 18.7877 41.153 18.1523C40.739 19.4465 39.8606 20.5301 38.7158 21.2177C39.8354 21.0845 40.9028 20.7875 41.8982 20.3465C41.1584 21.4589 40.2206 22.4327 39.1352 23.2157Z" fill="white"/>
</svg>
