<svg width="24" height="25" viewBox="0 0 24 25" fill="none" xmlns="http://www.w3.org/2000/svg">
<g clip-path="url(#clip0_285_4225)">
<path fill-rule="evenodd" clip-rule="evenodd" d="M11.9998 3.93555C11.9999 3.93555 12 3.93555 12 4.93555L11.9999 5.93555L11.9245 5.93566C11.8745 5.93577 11.8005 5.93599 11.7057 5.93643C11.5159 5.93732 11.2425 5.93911 10.9088 5.94268C10.241 5.94982 9.33394 5.9641 8.37466 5.99261C7.41379 6.02116 6.40856 6.06376 5.54208 6.12696C4.65397 6.19174 3.99408 6.27315 3.66531 6.35974C3.36661 6.44555 3.09554 6.60808 2.8791 6.83121C2.66797 7.04887 2.51606 7.31674 2.43757 7.6093C2.13803 9.28292 1.99155 10.9804 1.99995 12.6806L2 12.6918C1.98928 14.399 2.13467 16.1036 2.43444 17.7843C2.52106 18.0619 2.67449 18.3144 2.88154 18.5193C3.09845 18.7339 3.3669 18.8892 3.6611 18.9702C3.98842 19.0572 4.65016 19.1391 5.54208 19.2041C6.40856 19.2673 7.41379 19.3099 8.37466 19.3385C9.33394 19.367 10.241 19.3813 10.9088 19.3884C11.2425 19.392 11.5159 19.3938 11.7057 19.3947C11.8005 19.3951 11.8745 19.3953 11.9245 19.3954H12.0754C12.1255 19.3953 12.1994 19.3951 12.2943 19.3947C12.484 19.3938 12.7575 19.392 13.0911 19.3884C13.7589 19.3813 14.666 19.367 15.6253 19.3385C16.5861 19.3099 17.5914 19.2673 18.4578 19.2041C19.346 19.1394 20.0058 19.0579 20.3346 18.9714C20.6333 18.8855 20.9044 18.723 21.1208 18.4999C21.332 18.2822 21.4839 18.0144 21.5624 17.7218C21.8596 16.0609 22.006 14.3765 22 12.6891L21.9999 12.6793C22.0107 10.9661 21.8642 9.25563 21.5624 7.56931C21.4839 7.27675 21.332 7.00888 21.1208 6.79121C20.9069 6.57063 20.6395 6.40928 20.3449 6.32272C20.0049 6.24274 19.3426 6.16903 18.4641 6.11052C17.5959 6.0527 16.5893 6.01376 15.6278 5.98768C14.6679 5.96163 13.7602 5.94859 13.0921 5.94206C12.7582 5.9388 12.4846 5.93717 12.2947 5.93636L12.0756 5.93565L11.9999 5.93555L12 4.93555C12 3.93555 11.9999 3.93555 11.9998 3.93555L12.0797 3.93565C12.1312 3.93576 12.2067 3.93596 12.3032 3.93638C12.4963 3.9372 12.7736 3.93886 13.1116 3.94216C13.7872 3.94876 14.7071 3.96196 15.6821 3.98841C16.6556 4.01483 17.6915 4.05464 18.597 4.11494C19.4767 4.17353 20.3115 4.25571 20.8372 4.38409C20.8489 4.38695 20.8606 4.39003 20.8722 4.39332C21.5123 4.57441 22.0932 4.92121 22.5564 5.3987C23.0196 5.87618 23.3485 6.46743 23.51 7.11274L22.54 7.35555L23.5241 7.17803C23.852 8.99575 24.0113 10.8399 24 12.6869C24.0062 14.5063 23.8469 16.3225 23.5241 18.113C23.5201 18.1349 23.5154 18.1567 23.51 18.1784C23.3485 18.8237 23.0196 19.4149 22.5564 19.8924C22.0932 20.3699 21.5123 20.7167 20.8722 20.8978L20.8583 20.9016C20.3247 21.0443 19.4826 21.1347 18.6033 21.1988C17.6961 21.265 16.6588 21.3087 15.6847 21.3376C14.7089 21.3666 13.7885 21.3811 13.1125 21.3883C12.7743 21.3919 12.4969 21.3937 12.3036 21.3946C12.207 21.3951 12.1314 21.3953 12.0799 21.3954L12.0004 21.3955L11.9201 21.3954C11.8685 21.3953 11.7929 21.3951 11.6963 21.3946C11.5031 21.3937 11.2256 21.3919 10.8874 21.3883C10.2114 21.3811 9.29099 21.3666 8.31526 21.3376C7.34113 21.3087 6.30386 21.265 5.39659 21.1988C4.51729 21.1347 3.67525 21.0443 3.1416 20.9016L3.13604 20.9001C2.50897 20.7285 1.93675 20.3981 1.47467 19.9408C1.01259 19.4835 0.676269 18.9147 0.498203 18.2894C0.489164 18.2577 0.481701 18.2255 0.475843 18.1931C0.148004 16.3756 -0.0113041 14.5317 -5.36995e-05 12.6849C-0.00876796 10.8519 0.150527 9.02198 0.475836 7.21807C0.47979 7.19615 0.484476 7.17436 0.489887 7.15274C0.651405 6.50743 0.980357 5.91618 1.44352 5.4387C1.90668 4.96121 2.48764 4.61441 3.12773 4.43332L3.1416 4.4295C3.67525 4.28678 4.51729 4.19639 5.39659 4.13226C6.30386 4.06608 7.34113 4.02244 8.31526 3.99349C9.29099 3.96449 10.2114 3.95002 10.8874 3.94279C11.2256 3.93917 11.5031 3.93736 11.6963 3.93646C11.7929 3.936 11.8685 3.93578 11.9201 3.93566L11.9998 3.93555Z" fill="white"/>
<path fill-rule="evenodd" clip-rule="evenodd" d="M9.24718 8.55114C9.55499 8.37208 9.9348 8.37022 10.2443 8.54626L15.9943 11.8163C16.3069 11.994 16.5 12.3259 16.5 12.6855C16.5 13.0451 16.3069 13.377 15.9943 13.5548L10.2443 16.8248C9.9348 17.0008 9.55499 16.999 9.24718 16.8199C8.93937 16.6409 8.75 16.3116 8.75 15.9555V9.41553C8.75 9.05943 8.93937 8.73019 9.24718 8.55114ZM10.75 11.1346V14.2364L13.4771 12.6855L10.75 11.1346Z" fill="white"/>
</g>
<defs>
<clipPath id="clip0_285_4225">
<rect width="24" height="24" fill="white" transform="translate(0 0.935547)"/>
</clipPath>
</defs>
</svg>
