<svg width="37" height="37" viewBox="0 0 37 37" fill="none" xmlns="http://www.w3.org/2000/svg">
<path fill-rule="evenodd" clip-rule="evenodd" d="M23.9749 4.90432C26.5412 4.54902 29.3086 4.81075 31.7525 5.65333C32.6837 5.97439 33.25 6.85329 33.25 7.77687V28.233C33.25 29.9659 31.4766 30.9436 30.0511 30.3317C26.3791 28.7556 22.7913 28.9488 19.0955 31.4873C18.5855 31.8376 17.9145 31.8376 17.4045 31.4873C13.7087 28.9488 10.1209 28.7556 6.44893 30.3317C5.04742 30.9332 3.25 29.9997 3.25 28.2414V7.77685C3.25 6.85322 3.81636 5.97437 4.74753 5.65334C7.19143 4.81075 9.95875 4.54902 12.5251 4.90432C14.5933 5.19064 16.6235 5.89247 18.25 7.10679C19.8765 5.89247 21.9067 5.19064 23.9749 4.90432ZM16.75 9.76015C15.6091 8.80068 13.9907 8.15538 12.1164 7.89589C10.1921 7.62949 8.11375 7.78834 6.25 8.34036V27.1689C9.7374 25.9193 13.2653 25.9846 16.75 27.6348V9.76015ZM19.75 27.6348C23.2347 25.9846 26.7626 25.9193 30.25 27.1689V8.34036C28.3862 7.78834 26.3079 7.62949 24.3836 7.89589C22.5093 8.15538 20.8909 8.80068 19.75 9.76015V27.6348Z" fill="#FFA273"/>
</svg>
