<svg width="37" height="37" viewBox="0 0 37 37" fill="none" xmlns="http://www.w3.org/2000/svg">
<path fill-rule="evenodd" clip-rule="evenodd" d="M12.5 12.25V6.25C12.5 5.42157 13.1716 4.75 14 4.75H23C23.8284 4.75 24.5 5.42157 24.5 6.25V12.25H30.5C31.3284 12.25 32 12.9216 32 13.75V22.75C32 23.5784 31.3284 24.25 30.5 24.25H24.5V30.25C24.5 31.0784 23.8284 31.75 23 31.75H14C13.1716 31.75 12.5 31.0784 12.5 30.25V24.25H6.5C5.67157 24.25 5 23.5784 5 22.75V13.75C5 12.9216 5.67157 12.25 6.5 12.25H12.5ZM15.5 7.75H21.5V15.25H29V21.25H21.5V28.75H15.5V21.25H8L8 15.25H15.5V7.75Z" fill="#FFA273"/>
</svg>
