<svg width="37" height="37" viewBox="0 0 37 37" fill="none" xmlns="http://www.w3.org/2000/svg">
<path d="M19.8494 2.77931C19.8494 1.95114 19.245 1.27979 18.4994 1.27979C17.7538 1.27979 17.1494 1.95114 17.1494 2.77931V5.37718C17.1494 6.20534 17.7538 6.8767 18.4994 6.8767C19.245 6.8767 19.8494 6.20534 19.8494 5.37718V2.77931Z" fill="#FFA273"/>
<path fill-rule="evenodd" clip-rule="evenodd" d="M13.2441 14.4562C13.2441 11.5548 15.5962 9.20271 18.4976 9.20271C21.399 9.20271 23.7511 11.5548 23.7511 14.4562C23.7511 17.3576 21.399 19.7097 18.4976 19.7097C15.5962 19.7097 13.2441 17.3576 13.2441 14.4562ZM18.4976 11.9027C17.0874 11.9027 15.9441 13.0459 15.9441 14.4562C15.9441 15.8664 17.0874 17.0097 18.4976 17.0097C19.9079 17.0097 21.0511 15.8664 21.0511 14.4562C21.0511 13.0459 19.9079 11.9027 18.4976 11.9027Z" fill="#FFA273"/>
<path fill-rule="evenodd" clip-rule="evenodd" d="M10.3149 25.0136C11.8364 22.79 14.4712 21.2631 18.4991 21.2631C22.527 21.2631 25.1619 22.79 26.6833 25.0136C28.1 27.0842 28.3026 29.4043 28.3068 30.6221C28.3134 32.5453 26.7536 33.8157 25.1587 33.8157H11.8395C10.2446 33.8157 8.68483 32.5453 8.69143 30.6221C8.69561 29.4043 8.89818 27.0842 10.3149 25.0136ZM18.4991 23.9631C15.2321 23.9631 13.492 25.1516 12.5432 26.5383C11.5725 27.957 11.3948 29.6362 11.3914 30.6314C11.3908 30.8063 11.4532 30.9144 11.529 30.9868C11.6178 31.0716 11.736 31.1157 11.8395 31.1157H25.1587C25.2622 31.1157 25.3804 31.0716 25.4692 30.9868C25.5451 30.9144 25.6074 30.8063 25.6068 30.6314C25.6034 29.6362 25.4257 27.957 24.455 26.5383C23.5062 25.1516 21.7662 23.9631 18.4991 23.9631Z" fill="#FFA273"/>
<path fill-rule="evenodd" clip-rule="evenodd" d="M3.80989 16.691C3.80989 14.282 5.76281 12.3291 8.17186 12.3291C10.5809 12.3291 12.5338 14.282 12.5338 16.691C12.5338 19.1001 10.5809 21.053 8.17186 21.053C5.76281 21.053 3.80989 19.1001 3.80989 16.691ZM8.17186 15.0291C7.25398 15.0291 6.50989 15.7731 6.50989 16.691C6.50989 17.6089 7.25398 18.353 8.17186 18.353C9.08973 18.353 9.83382 17.6089 9.83382 16.691C9.83382 15.7731 9.08973 15.0291 8.17186 15.0291Z" fill="#FFA273"/>
<path d="M8.55938 24.5172C9.03856 23.8169 9.61968 23.0854 10.3178 22.3934C9.89264 22.347 9.44671 22.3229 8.97945 22.3229C5.53195 22.3229 3.24519 23.6337 1.92027 25.5701C0.693495 27.3631 0.521171 29.365 0.517597 30.4067C0.511607 32.1528 1.92984 33.3076 3.37957 33.3076H7.49032C6.96195 32.8549 6.60555 32.1737 6.60842 31.3371C6.60917 31.1175 6.61514 30.8728 6.62958 30.6076H3.37957C3.34862 30.6076 3.30214 30.5925 3.26678 30.5587C3.25184 30.5445 3.24113 30.5289 3.23368 30.5117C3.22682 30.4959 3.21741 30.4665 3.21758 30.416C3.22039 29.5968 3.36782 28.2359 4.14859 27.0948C4.82638 26.1042 6.02354 25.2166 8.21915 25.0507C8.32557 24.8714 8.43883 24.6934 8.55938 24.5172Z" fill="#FFA273"/>
<path d="M29.5084 33.3079H33.6112C35.061 33.3079 36.4792 32.153 36.4732 30.4069C36.4696 29.3652 36.2973 27.3632 35.0705 25.5703C33.7456 23.6339 31.4588 22.323 28.0113 22.323C27.5468 22.323 27.1034 22.3468 26.6805 22.3928C27.3789 23.085 27.9602 23.8166 28.4396 24.5172C28.5603 24.6936 28.6737 24.8719 28.7803 25.0515C30.9704 25.2191 32.1653 26.1056 32.8422 27.0949C33.623 28.2361 33.7704 29.597 33.7732 30.4162C33.7734 30.4667 33.764 30.4961 33.7571 30.5119C33.7497 30.5292 33.739 30.5447 33.724 30.5589C33.6887 30.5927 33.6422 30.6079 33.6112 30.6079H30.3694C30.3838 30.8729 30.3898 31.1175 30.3905 31.3371C30.3934 32.1738 30.0369 32.8551 29.5084 33.3079Z" fill="#FFA273"/>
<path fill-rule="evenodd" clip-rule="evenodd" d="M28.8299 12.3775C26.4178 12.3775 24.4625 14.3329 24.4625 16.7449C24.4625 19.157 26.4178 21.1124 28.8299 21.1124C31.242 21.1124 33.1974 19.157 33.1974 16.7449C33.1974 14.3329 31.242 12.3775 28.8299 12.3775ZM27.1625 16.7449C27.1625 15.824 27.909 15.0775 28.8299 15.0775C29.7508 15.0775 30.4974 15.824 30.4974 16.7449C30.4974 17.6658 29.7508 18.4124 28.8299 18.4124C27.909 18.4124 27.1625 17.6658 27.1625 16.7449Z" fill="#FFA273"/>
<path d="M26.8773 4.60194C27.4045 5.12915 27.3572 6.03126 26.7716 6.61686L24.9346 8.45384C24.349 9.03944 23.4469 9.08677 22.9197 8.55956C22.3925 8.03236 22.4398 7.13025 23.0254 6.54465L24.8624 4.70767C25.448 4.12207 26.3501 4.07474 26.8773 4.60194Z" fill="#FFA273"/>
<path d="M12.1122 4.70767C11.5266 4.12207 10.6245 4.07474 10.0973 4.60194C9.57008 5.12915 9.61741 6.03126 10.203 6.61686L12.04 8.45384C12.6256 9.03944 13.5277 9.08677 14.0549 8.55956C14.5821 8.03236 14.5348 7.13025 13.9492 6.54465L12.1122 4.70767Z" fill="#FFA273"/>
</svg>
