<svg width="37" height="37" viewBox="0 0 37 37" fill="none" xmlns="http://www.w3.org/2000/svg">
<path fill-rule="evenodd" clip-rule="evenodd" d="M24.0592 4.64387C21.886 4.82144 19.8496 5.44956 18.2518 6.48669C16.3887 5.03533 14.214 4.11156 11.8808 3.9465C9.15124 3.75339 6.33065 4.60827 3.68878 6.65594C1.12952 8.63958 0.260157 11.6447 0.250089 14.3217C0.240175 16.958 1.0586 19.6071 2.30088 21.1239C2.91597 21.875 3.85472 22.8847 4.72147 23.766C4.70265 24.6637 5.0317 25.568 5.71077 26.2597C6.29015 26.8498 7.02934 27.1885 7.79211 27.2743C7.89415 27.9748 8.21175 28.6505 8.74592 29.1946C9.27122 29.7296 9.92788 30.0579 10.6144 30.1785C10.6762 30.9587 11.0021 31.7224 11.5936 32.3248C12.2537 32.9972 13.1214 33.3431 13.995 33.3606C14.1313 33.9151 14.4138 34.4413 14.843 34.8785C16.1186 36.1777 18.2068 36.1979 19.5073 34.9237L21.5692 32.9033C21.7818 32.6949 21.9603 32.4648 22.1044 32.22C22.468 32.3147 22.8413 32.349 23.2157 32.3225C24.2036 32.2525 25.0657 31.7699 25.6747 31.1197C26.2195 30.5379 26.6132 29.7682 26.7123 28.9143C27.4528 28.7998 28.138 28.4467 28.6647 27.914C29.1872 27.3856 29.5526 26.6803 29.6448 25.8888C30.451 25.7499 31.1498 25.3284 31.6585 24.7768C32.1822 24.209 32.5475 23.4578 32.6214 22.6301L32.6423 22.6067C32.655 22.5922 32.6759 22.5693 32.704 22.5386C32.9638 22.254 33.8388 21.2953 34.5449 20.0608C35.1543 18.9954 35.6474 16.8717 35.499 14.5702C35.3469 12.2087 34.5069 9.44391 32.1869 7.25261C29.8197 5.01678 26.7688 4.42249 24.0592 4.64387ZM22.1801 29.0176C22.2426 29.0624 22.3023 29.1128 22.3584 29.1689C22.6525 29.4628 22.878 29.492 23.0143 29.4824C23.1872 29.4701 23.4043 29.3765 23.5936 29.1744C23.7825 28.9727 23.8796 28.7298 23.8862 28.5188C23.8918 28.3406 23.8385 28.1017 23.5555 27.8281C21.8078 26.1403 18.6628 23.0127 17.3119 21.6632C16.7554 21.1072 16.7554 20.2058 17.3119 19.6499C17.8684 19.0939 18.7707 19.0939 19.3272 19.6499C20.6793 21.0007 24.7501 25.0227 25.5369 25.7815C25.8324 26.0665 26.0674 26.1102 26.2017 26.1074C26.3571 26.1042 26.5148 26.0368 26.6371 25.9131C26.7581 25.7908 26.8186 25.6402 26.8176 25.4914C26.8168 25.36 26.7671 25.1053 26.4351 24.7736C25.8398 24.1789 25.1293 23.4743 24.3899 22.7437C23.0981 21.4671 21.7183 20.1108 20.7121 19.1217L20.2887 18.7054C19.7277 18.1539 19.7205 17.2526 20.2725 16.6922C20.7436 16.214 21.4696 16.1386 22.021 16.4694C22.1158 16.5263 22.2054 16.5952 22.2877 16.6761L22.7118 17.093C24.2921 18.6464 26.806 21.1176 28.4504 22.7603C28.7602 23.0699 28.9859 23.0956 29.0972 23.09C29.2387 23.0829 29.4123 23.0105 29.5625 22.8476C29.7135 22.6838 29.7858 22.4869 29.7852 22.3181C29.7846 22.1804 29.7376 21.9668 29.4563 21.713C29.4397 21.6981 29.4236 21.6828 29.4078 21.6672L21.2744 13.6062C21.1937 13.6837 21.1116 13.7625 21.0289 13.8418C20.3047 14.5363 19.5276 15.2756 19.1333 15.6337C19.0991 15.6647 19.0543 15.7076 18.9996 15.76C18.5809 16.1609 17.5785 17.1206 16.2606 17.627C15.4775 17.9279 14.5477 18.0908 13.5179 17.9167C12.4885 17.7426 11.4572 17.2485 10.4449 16.3878C10.1457 16.1334 9.9649 15.7668 9.94528 15.3747C9.92566 14.9827 10.069 14.5999 10.3413 14.3169C11.3808 13.2369 13.7866 10.7455 16.0639 8.40975C14.7016 7.45515 13.2086 6.89479 11.6795 6.78661C9.72371 6.64824 7.58446 7.24012 5.4358 8.90551C3.79545 10.1769 3.10809 12.1992 3.10007 14.3324C3.09189 16.5065 3.79401 18.4508 4.50666 19.321C4.89936 19.8005 5.46874 20.4297 6.07109 21.0637L7.99212 19.1814C9.35669 17.8443 11.5479 17.8655 12.8862 19.2287C13.4204 19.7728 13.738 20.4485 13.8401 21.149C14.6028 21.2348 15.342 21.5735 15.9214 22.1636C16.5128 22.766 16.8388 23.5297 16.9006 24.3099C17.5871 24.4305 18.2438 24.7588 18.7691 25.2939C19.3224 25.8575 19.6434 26.5623 19.733 27.2897C20.4236 27.3893 21.0881 27.7076 21.6144 28.2436C21.8454 28.4789 22.034 28.7401 22.1801 29.0176ZM32.0704 18.6482C31.8599 19.0163 31.6313 19.351 31.4138 19.6411L31.3833 19.6145L22.2918 10.6039C21.7409 10.0579 20.854 10.0526 20.2967 10.592C20.1909 10.6944 20.0684 10.8128 19.9341 10.9423C19.0798 11.7666 17.749 13.043 17.2162 13.5269C17.1434 13.593 17.0682 13.6633 16.9902 13.7363C16.5316 14.1655 15.9752 14.6861 15.2375 14.9696C14.8441 15.1207 14.4344 15.1839 13.9934 15.1094C13.8789 15.09 13.7558 15.0603 13.6241 15.0166C15.0947 13.4938 17.2503 11.2683 19.1394 9.33771C19.1864 9.29978 19.235 9.2619 19.2854 9.22413C20.37 8.41079 22.2356 7.64961 24.2916 7.48162C26.4513 7.30516 28.6137 7.79591 30.2289 9.32154C31.8913 10.8917 32.5356 12.9011 32.6549 14.7531C32.7782 16.6652 32.3299 18.1945 32.0704 18.6482ZM7.64878 23.296C7.3488 23.59 7.34413 24.0712 7.63836 24.3709C7.93259 24.6706 8.4143 24.6753 8.71428 24.3813L10.9482 22.1924C11.2482 21.8984 11.2529 21.4172 10.9587 21.1175C10.6644 20.8178 10.1827 20.8131 9.88273 21.1071L7.64878 23.296ZM10.6839 26.2309C10.384 26.5249 10.3793 27.0061 10.6735 27.3058C10.9677 27.6055 11.4495 27.6102 11.7494 27.3162L13.9834 25.1273C14.2834 24.8333 14.288 24.3521 13.9938 24.0524C13.6996 23.7527 13.2179 23.748 12.9179 24.042L10.6839 26.2309ZM13.5212 30.436C13.2269 30.1364 13.2316 29.6551 13.5316 29.3612L15.7655 27.1722C16.0655 26.8783 16.5472 26.8829 16.8415 27.1826C17.1357 27.4823 17.131 27.9636 16.831 28.2575L14.5971 30.4465C14.2971 30.7404 13.8154 30.7357 13.5212 30.436ZM16.7788 32.1445C16.5429 32.3757 16.5393 32.7541 16.7706 32.9897C17.002 33.2254 17.3808 33.2291 17.6167 32.9979L19.6786 30.9776C19.9145 30.7464 19.9181 30.368 19.6868 30.1323C19.4554 29.8967 19.0766 29.893 18.8407 30.1242L16.7788 32.1445Z" fill="#FFA273"/>
</svg>
